<svg width="23" height="47" viewBox="0 0 23 47" fill="none" xmlns="http://www.w3.org/2000/svg">
<path d="M4.3566 27.6017L3.91723 27.8403L4.3566 27.6017ZM22.2301 44.4439C22.4753 44.3168 22.571 44.0151 22.4439 43.7699L20.3731 39.7747C20.246 39.5295 19.9443 39.4338 19.6991 39.5609C19.4539 39.688 19.3582 39.9897 19.4853 40.2349L21.326 43.7862L17.7747 45.6269C17.5295 45.754 17.4338 46.0557 17.5609 46.3009C17.688 46.5461 17.9897 46.6418 18.2349 46.5147L22.2301 44.4439ZM1.66929 0.866572C0.7938 4.02835 0.314312 8.83976 0.567459 13.807C0.820413 18.7705 1.80804 23.957 3.91723 27.8403L4.79598 27.3631C2.78833 23.6667 1.81556 18.6499 1.56616 13.7561C1.31696 8.86617 1.79316 4.16656 2.63302 1.13343L1.66929 0.866572ZM3.91723 27.8403C8.05621 35.4608 12.4751 41.5029 21.8488 44.4766L22.1512 43.5234C13.1462 40.6666 8.89065 34.9019 4.79598 27.3631L3.91723 27.8403Z" fill="black"/>
</svg>
