<svg width="24" height="28" viewBox="0 0 24 28" fill="none" xmlns="http://www.w3.org/2000/svg">
<path d="M22.8362 11.5357L18.2395 8.88098L11.9417 13.5866L18.2394 18.2922L22.8518 15.6283C23.571 15.1914 24.0001 14.4279 24.0001 13.5867C24.0001 12.7454 23.5709 11.982 22.8362 11.5357Z" fill="#FED731"/>
<path d="M13.534 13.5879C13.5271 13.5968 7.96569 20.7472 7.96118 20.753L0.716506 26.4585C0.270627 26.0126 0 25.4077 0 24.7388V2.39754C0 1.72885 0.270627 1.12375 0.716506 0.677979L7.96118 6.42287C7.96569 6.42865 13.5271 13.5791 13.534 13.5879Z" fill="#23CFFD"/>
<path d="M18.2476 8.87398L13.5346 13.587L0.717056 0.677153C0.876227 0.533799 1.0355 0.422342 1.21065 0.310886C1.97487 -0.118965 2.8825 -0.103095 3.6309 0.358706L11.9423 5.24374L18.2476 8.87398Z" fill="#27EE7B"/>
<path d="M18.2476 18.3009L11.9423 21.9312L3.61498 26.7928C3.23284 27.0157 2.81886 27.1431 2.3889 27.1431C1.99084 27.1431 1.59279 27.0316 1.21065 26.8246C1.0355 26.7132 0.876227 26.6018 0.717056 26.4585L13.5346 13.5879L18.2476 18.3009Z" fill="#F6394C"/>
</svg>
