<svg width="18" height="18" viewBox="0 0 18 18" fill="none" xmlns="http://www.w3.org/2000/svg">
<path d="M1.8 3.6H0V16.2C0 16.6774 0.189642 17.1352 0.527208 17.4728C0.864773 17.8104 1.32261 18 1.8 18H14.4V16.2H1.8V3.6ZM16.2 0H5.4C4.92261 0 4.46477 0.189642 4.12721 0.527208C3.78964 0.864773 3.6 1.32261 3.6 1.8V12.6C3.6 13.0774 3.78964 13.5352 4.12721 13.8728C4.46477 14.2104 4.92261 14.4 5.4 14.4H16.2C16.6774 14.4 17.1352 14.2104 17.4728 13.8728C17.8104 13.5352 18 13.0774 18 12.6V1.8C18 1.32261 17.8104 0.864773 17.4728 0.527208C17.1352 0.189642 16.6774 0 16.2 0ZM9 11.25V3.15L14.4 7.2L9 11.25Z" fill="white"/>
</svg>
