<svg width="20" height="16" viewBox="0 0 20 16" fill="none" xmlns="http://www.w3.org/2000/svg">
<path d="M17.9259 1.6H11.4074L9.77778 0H4.88889C4.45668 0 4.04218 0.168571 3.73657 0.468629C3.43095 0.768687 3.25926 1.17565 3.25926 1.6V11.2C3.25926 11.6243 3.43095 12.0313 3.73657 12.3314C4.04218 12.6314 4.45668 12.8 4.88889 12.8H17.9259C18.3581 12.8 18.7726 12.6314 19.0782 12.3314C19.3839 12.0313 19.5556 11.6243 19.5556 11.2V3.2C19.5556 2.77565 19.3839 2.36869 19.0782 2.06863C18.7726 1.76857 18.3581 1.6 17.9259 1.6ZM1.62963 3.2H0V7.2V14.4C0 14.8243 0.171693 15.2313 0.477308 15.5314C0.782922 15.8314 1.19743 16 1.62963 16H16.2963V14.4H1.62963V3.2Z" fill="white"/>
</svg>
