<svg xmlns="http://www.w3.org/2000/svg" width="50" height="50" fill="none"><path fill="#F54B00" d="M45 1H5C2.8 1 1 2.8 1 5v40c0 2.2 1.8 4 4 4h40c2.2 0 4-1.8 4-4V5c0-2.2-1.8-4-4-4Z"/><path fill="#fff" d="M42 24.549a3.84 3.84 0 0 0-3.836-3.836c-.967 0-1.85.363-2.526.956-2.403-1.543-5.58-2.548-9.099-2.724l1.85-5.848 5.049 1.189a3.181 3.181 0 0 0 3.174 3.073 3.183 3.183 0 0 0 3.18-3.18A3.183 3.183 0 0 0 36.612 11a3.182 3.182 0 0 0-2.879 1.837l-5.672-1.335a.738.738 0 0 0-.873.497l-2.19 6.923c-3.747.074-7.145 1.085-9.692 2.697a3.818 3.818 0 0 0-2.47-.906 3.83 3.83 0 0 0-2.085 7.05 6.75 6.75 0 0 0-.082 1.044c0 5.454 6.622 9.892 14.764 9.892 8.14 0 14.763-4.438 14.763-9.892 0-.327-.024-.65-.07-.97A3.832 3.832 0 0 0 42 24.55Zm-5.388-12.07c.939 0 1.702.763 1.702 1.702 0 .938-.763 1.702-1.702 1.702a1.704 1.704 0 0 1-1.703-1.702c0-.939.764-1.703 1.703-1.703Zm-26.135 12.07c0-1.3 1.058-2.359 2.358-2.359.44 0 .85.124 1.203.334-1.316 1.07-2.3 2.327-2.856 3.703a2.347 2.347 0 0 1-.705-1.678Zm28.242 4.259c0 4.639-5.961 8.414-13.287 8.414-7.326 0-13.286-3.775-13.286-8.414a5.579 5.579 0 0 1 .355-1.928c.451-1.212 1.315-2.323 2.495-3.271.378-.303.787-.59 1.225-.857 2.39-1.46 5.637-2.36 9.212-2.36 3.625 0 6.916.926 9.315 2.423.439.273.847.566 1.222.877 1.134.933 1.962 2.021 2.399 3.204a5.587 5.587 0 0 1 .35 1.912Zm1.002-2.493c-.54-1.39-1.522-2.66-2.837-3.743a2.34 2.34 0 0 1 1.28-.382 2.36 2.36 0 0 1 2.359 2.359c0 .703-.312 1.334-.802 1.766Z"/><path fill="#fff" d="M22.83 27.029c0-1.246-1.01-2.29-2.256-2.29-1.246 0-2.29 1.044-2.29 2.29 0 1.245 1.045 2.257 2.29 2.257a2.258 2.258 0 0 0 2.256-2.257ZM30.46 24.737c-1.246 0-2.294 1.045-2.294 2.29 0 1.247 1.048 2.258 2.294 2.258a2.257 2.257 0 0 0 2.257-2.257c0-1.247-1.01-2.29-2.257-2.29ZM29.823 32.498c-.836.835-2.244 1.24-4.306 1.24l-.018.002-.017-.002c-2.063 0-3.47-.405-4.305-1.24a.738.738 0 1 0-1.045 1.045c1.125 1.126 2.875 1.673 5.35 1.673l.017-.002.018.002c2.474 0 4.225-.547 5.351-1.672a.738.738 0 0 0 0-1.045.74.74 0 0 0-1.045 0Z"/></svg>