<svg xmlns="http://www.w3.org/2000/svg" width="50" height="50" fill="none"><rect width="48" height="48" x="1" y="1" fill="#000" rx="4"/><path fill="#fff" d="M34.19 23.612c-.164-.078-.33-.154-.499-.226-.293-5.404-3.246-8.499-8.205-8.53h-.067c-2.966 0-5.433 1.266-6.95 3.57l2.726 1.87c1.134-1.72 2.914-2.087 4.225-2.087h.046c1.632.01 2.864.485 3.662 1.41.58.674.968 1.606 1.16 2.781-1.447-.246-3.013-.322-4.686-.226-4.715.272-7.746 3.021-7.542 6.842.103 1.938 1.069 3.605 2.718 4.695 1.395.92 3.192 1.37 5.059 1.269 2.465-.136 4.4-1.076 5.749-2.796 1.025-1.307 1.673-3 1.959-5.132 1.175.709 2.046 1.642 2.527 2.764.818 1.907.865 5.04-1.692 7.595-2.24 2.238-4.933 3.206-9.002 3.236-4.515-.033-7.929-1.481-10.149-4.303-2.078-2.642-3.152-6.459-3.193-11.344.04-4.885 1.115-8.702 3.193-11.344 2.22-2.822 5.634-4.27 10.149-4.303 4.547.034 8.02 1.488 10.325 4.324 1.13 1.39 1.982 3.139 2.544 5.178l3.196-.853c-.681-2.51-1.752-4.672-3.21-6.465C35.278 7.9 30.957 6.038 25.389 6h-.023c-5.556.038-9.829 1.908-12.7 5.557-2.554 3.248-3.872 7.766-3.916 13.43v.026c.044 5.664 1.362 10.183 3.916 13.43 2.871 3.649 7.144 5.519 12.7 5.557h.023c4.94-.034 8.422-1.328 11.29-4.194 3.754-3.75 3.64-8.45 2.404-11.334-.888-2.07-2.58-3.75-4.893-4.86Zm-8.53 8.02c-2.066.116-4.213-.812-4.319-2.798-.078-1.473 1.049-3.116 4.446-3.312.389-.023.77-.034 1.146-.034 1.234 0 2.388.12 3.438.35-.392 4.889-2.688 5.683-4.71 5.794Z"/></svg>