<svg width="38" height="38" viewBox="0 0 38 38" fill="none" xmlns="http://www.w3.org/2000/svg">
<rect width="38" height="38" rx="3.95833" fill="#010101"/>
<circle cx="20.1875" cy="20.1875" r="12.1719" stroke="#FF004F" stroke-width="2.96875"/>
<circle cx="17.8125" cy="17.8125" r="12.1719" stroke="#00F2EA" stroke-width="2.96875"/>
<circle cx="19" cy="19" r="11.875" fill="#010101" stroke="white" stroke-width="2.375"/>
<path d="M14.8438 23.6647V14.0805C14.8435 14.0055 14.8638 13.9317 14.9027 13.8669C14.9415 13.802 14.9974 13.7483 15.0647 13.7113C15.1321 13.6743 15.2083 13.6553 15.2857 13.6563C15.3631 13.6573 15.4388 13.6782 15.5051 13.7169L23.5393 18.6381C23.6036 18.6757 23.6568 18.7288 23.6937 18.7922C23.7306 18.8556 23.75 18.9272 23.75 19C23.75 19.0728 23.7306 19.1444 23.6937 19.2078C23.6568 19.2712 23.6036 19.3243 23.5393 19.3619L15.5051 24.0266C15.4389 24.0652 15.3634 24.0861 15.2861 24.0872C15.2089 24.0883 15.1328 24.0694 15.0655 24.0326C14.9982 23.9958 14.9423 23.9423 14.9033 23.8777C14.8644 23.8131 14.8438 23.7396 14.8438 23.6647Z" fill="#00F2EA"/>
<path d="M15.4375 23.9212V15.268C15.4372 15.193 15.4576 15.1192 15.4964 15.0544C15.5352 14.9895 15.5912 14.9358 15.6585 14.8988C15.7258 14.8618 15.8021 14.8428 15.8794 14.8438C15.9568 14.8448 16.0325 14.8657 16.0988 14.9044L24.133 19.2319C24.1973 19.2695 24.2505 19.3226 24.2874 19.386C24.3244 19.4494 24.3438 19.521 24.3438 19.5938C24.3438 19.6666 24.3244 19.7381 24.2874 19.8015C24.2505 19.8649 24.1973 19.918 24.133 19.9556L16.0988 24.2831C16.0327 24.3217 15.9571 24.3427 15.8799 24.3437C15.8026 24.3448 15.7265 24.3259 15.6593 24.2891C15.592 24.2523 15.536 24.1989 15.4971 24.1342C15.4581 24.0696 15.4375 23.9961 15.4375 23.9212Z" fill="#FF004F"/>
<path d="M15.4375 23.3275V14.6742C15.4372 14.5992 15.4576 14.5255 15.4964 14.4606C15.5352 14.3957 15.5912 14.3421 15.6585 14.305C15.7258 14.268 15.8021 14.2491 15.8794 14.25C15.9568 14.251 16.0325 14.2719 16.0988 14.3106L23.5393 18.6381C23.6036 18.6757 23.6568 18.7288 23.6937 18.7922C23.7306 18.8556 23.75 18.9272 23.75 19C23.75 19.0728 23.7306 19.1444 23.6937 19.2078C23.6568 19.2712 23.6036 19.3243 23.5393 19.3619L16.0988 23.6894C16.0327 23.728 15.9571 23.7489 15.8799 23.75C15.8026 23.751 15.7265 23.7322 15.6593 23.6954C15.592 23.6586 15.536 23.6051 15.4971 23.5405C15.4581 23.4758 15.4375 23.4023 15.4375 23.3275Z" fill="white"/>
</svg>
