<svg width="38" height="38" viewBox="0 0 38 38" fill="none" xmlns="http://www.w3.org/2000/svg">
<rect width="38" height="38" rx="3.95833" fill="#010101"/>
<path fill-rule="evenodd" clip-rule="evenodd" d="M16.403 21.3664L16.4032 27.5121C16.4032 30.4926 13.9858 32.9085 11.0038 32.9085C9.49124 32.9085 8.12398 32.2869 7.14355 31.285C8.00255 31.8615 9.03665 32.1977 10.1492 32.1977C13.1309 32.1977 15.5482 29.7818 15.5482 26.8014V20.8437C15.8351 21.0486 16.1381 21.2324 16.4549 21.3929C16.4376 21.3841 16.4203 21.3753 16.403 21.3664ZM16.403 11.1014H15.5929C15.7115 11.777 15.996 12.3954 16.403 12.913V11.1014ZM9.02947 28.998C8.7019 28.5687 8.52483 28.0435 8.52562 27.5036C8.52562 26.1405 9.63129 25.0352 10.9954 25.0352C11.2496 25.0351 11.5023 25.0741 11.7446 25.1509V22.1662C11.4614 22.1274 11.1757 22.1109 10.8901 22.117V24.4401C10.6477 24.3633 10.3948 24.3243 10.1405 24.3245C8.77647 24.3245 7.67087 25.4296 7.67087 26.7929C7.67087 27.7569 8.22348 28.5914 9.02947 28.998Z" fill="#FF004F"/>
<path d="M15.5482 20.8437C15.8194 21.0374 16.105 21.2123 16.403 21.3664V12.913C15.996 12.3954 15.7115 11.777 15.5929 11.1014L15.5482 20.8437Z" fill="#FF004F"/>
<path fill-rule="evenodd" clip-rule="evenodd" d="M31.8405 16.0226L31.8407 22.1684C31.8407 25.1489 29.4233 27.5647 26.4413 27.5647C24.9287 27.5647 23.5615 26.9432 22.5811 25.9412C23.44 26.5178 24.4742 26.854 25.5867 26.854C28.5684 26.854 30.9857 24.4381 30.9857 21.4577V15.5C31.2726 15.7049 31.5756 15.8887 31.8924 16.0492C31.8751 16.0404 31.8578 16.0315 31.8405 16.0226ZM31.8405 6.1331L31.7958 4.15625H30.9857C31.1042 4.83185 31.4335 7.05164 31.8405 7.56931V6.1331ZM24.467 23.6542C24.1394 23.225 23.9623 22.6998 23.9631 22.1598C23.9631 20.7967 25.0688 19.6915 26.4329 19.6915C26.6871 19.6914 26.9398 19.7304 27.1821 19.8072V16.8225C26.8989 16.7837 26.6132 16.7672 26.3276 16.7733V19.0964C26.0852 19.0195 25.8323 18.9806 25.578 18.9808C24.214 18.9808 23.1084 20.0859 23.1084 21.4492C23.1084 22.4131 23.661 23.2477 24.467 23.6542Z" fill="#FF004F"/>
<path d="M30.9857 15.5C31.2569 15.6937 31.5425 15.8685 31.8405 16.0226V7.56931C31.4335 7.05164 31.1042 4.83185 30.9857 4.15625V15.5Z" fill="#FF004F"/>
<path d="M15.5929 11.1013C15.5735 10.9902 15.5585 10.8784 15.5482 10.7661V10.3906H12.6101V26.8014C12.6054 28.1606 11.5017 29.2613 10.1404 29.2613C9.75453 29.2619 9.3739 29.1717 9.0293 28.998C9.48057 29.5899 10.1932 29.972 10.9952 29.972C12.3564 29.972 13.4603 28.8714 13.465 27.512V11.1013L15.5929 11.1013ZM10.8902 22.117V21.4555C10.6446 21.422 10.3971 21.4052 10.1493 21.4053C7.16728 21.4053 4.75 23.8213 4.75 26.8014C4.75 28.6698 5.70002 30.3164 7.14369 31.285C6.19152 30.3121 5.60488 28.9806 5.60488 27.512C5.60488 24.5698 7.96067 22.1775 10.8902 22.117Z" fill="#00F2EA"/>
<path d="M31.0304 5.75753C31.011 5.64646 30.996 5.53464 30.9857 5.42235V5.04687V4.15625L28.0476 5.04687V7.10261V21.4576C28.0429 22.8169 26.9392 23.9176 25.5779 23.9176C25.192 23.9182 24.8114 23.828 24.4668 23.6543C24.9181 24.2462 25.6307 24.6282 26.4327 24.6282C27.7939 24.6282 28.8977 23.5277 28.9025 22.1683V6.82812V5.75759L31.0304 5.75753ZM26.3277 16.7732V16.1118C26.0821 16.0782 25.8346 16.0614 25.5868 16.0615C22.6048 16.0615 20.1875 18.4775 20.1875 21.4576C20.1875 23.326 21.1375 24.9726 22.5812 25.9412C21.629 24.9684 21.0424 23.6369 21.0424 22.1682C21.0424 19.2261 23.3982 16.8337 26.3277 16.7732Z" fill="#00F2EA"/>
<path d="M15.5482 10.7661C15.5585 10.8784 15.5735 10.9902 15.5929 11.1013L28.0476 7.10261V5.04687L12.6101 10.3906H15.5482V10.7661Z" fill="#00F2EA"/>
<path fill-rule="evenodd" clip-rule="evenodd" d="M15.5482 20.8436L15.5483 26.8014C15.5483 29.7818 13.131 32.1978 10.1493 32.1978C9.03665 32.1978 8.00261 31.8615 7.14361 31.2851C6.19144 30.3122 5.6048 28.9808 5.6048 27.512C5.6048 24.5698 7.96065 22.1776 10.89 22.1171V24.4402C10.6537 24.3652 10.4018 24.3246 10.1405 24.3246C8.7764 24.3246 7.6708 25.4298 7.6708 26.793C7.6708 27.7568 8.22348 28.5914 9.02934 28.9979C9.48061 29.59 10.1932 29.9721 10.9953 29.9721C12.3565 29.9721 13.4602 28.8714 13.4651 27.512V11.1014H15.5929L15.5799 13.3594L15.5482 20.8436Z" fill="white"/>
<path fill-rule="evenodd" clip-rule="evenodd" d="M30.9857 15.4999L30.9858 21.4577C30.9858 24.438 28.5685 26.8541 25.5868 26.8541C24.4742 26.8541 23.4401 26.5178 22.5811 25.9413C21.6289 24.9685 21.0423 23.637 21.0423 22.1683C21.0423 19.2261 23.3982 16.8338 26.3275 16.7733V19.0964C26.0912 19.0215 25.8393 18.9808 25.578 18.9808C24.2139 18.9808 23.1083 20.0861 23.1083 21.4492C23.1083 22.4131 23.661 23.2477 24.4668 23.6542C24.9181 24.2462 25.6307 24.6283 26.4328 24.6283C27.794 24.6283 28.8977 23.5276 28.9026 22.1682V8.60938V5.76673V5.75761H28.929H31.0304L30.9857 15.4999Z" fill="white"/>
<path d="M13.4651 11.1014H15.5929L15.5799 13.3594L28.9026 8.60938V5.76673L13.4651 11.1014Z" fill="white"/>
<path d="M28.929 5.75761H31.0304L30.9857 5.04688L28.929 5.75761Z" fill="white"/>
</svg>
