<svg xmlns="http://www.w3.org/2000/svg" viewBox="0 0 26 26"><path d="M24.37500048 12.18750024c0 6.73092786-5.45657238 12.18750024-12.18750024 12.18750024C5.45653429 24.37500048 0 18.9184281 0 12.18750024 0 5.45653429 5.45653429 0 12.18750024 0c6.73092786 0 12.18750024 5.45653429 12.18750024 12.18750024" fill="none"/><path d="M23.78479442 12.18750902c0 6.40492438-5.19225128 11.59717567-11.59717567 11.59717567-6.40492439 0-11.59717568-5.19225129-11.59717568-11.59717567 0-6.40493469 5.19221696-11.59716538 11.59717568-11.59716538 6.40492439 0 11.59717567 5.19223069 11.59717567 11.59716538" fill="#FFF"/><path d="M20.03334558 7.16017344l-6.522199 6.37939244v7.93141695c0 .14281686-.61891886.25707036-1.3234935.26658004-.6760456-.00950968-1.3234935-.12376318-1.3234935-.26658004v-7.93141695l-6.52223333-6.379389c-.10470948-.10473695.22854131-.59985487.74268202-1.11401617.51417505-.51416131 1.01880608-.8474121 1.11400588-.74267516l5.97952925 5.83668835 5.97946059-5.83668835c.1047438-.10473695.59986516.22851385 1.1140402.74267516.51414071.5141613.85693552 1.00927579.76170139 1.11401617" fill="#EC1C24"/></svg>